<svg id="_0243_recycling_2" xmlns="http://www.w3.org/2000/svg" viewBox="0 0 500 500" data-imageid="recycling-2-32" imageName="Recycling 2" class="illustrations_image" style="width: 144px;"><defs><style>.cls-1_recycling-2-32{fill:#fff;}.cls-2_recycling-2-32{fill:#f4a28c;}.cls-3_recycling-2-32{opacity:.46;}.cls-3_recycling-2-32,.cls-4_recycling-2-32,.cls-5_recycling-2-32,.cls-6_recycling-2-32,.cls-7_recycling-2-32,.cls-8_recycling-2-32{fill:none;}.cls-9_recycling-2-32{fill:#ce8172;}.cls-4_recycling-2-32{opacity:.44;}.cls-5_recycling-2-32{opacity:.03;}.cls-6_recycling-2-32{opacity:.12;}.cls-7_recycling-2-32{opacity:.31;}.cls-10_recycling-2-32{fill:#24285b;}.cls-11_recycling-2-32{fill:#000001;}.cls-12_recycling-2-32{fill:#ffd200;}.cls-8_recycling-2-32{opacity:.1;}.cls-13_recycling-2-32{fill:#68e1fd;}</style></defs><g id="sd_recycling-2-32" class="cls-5_recycling-2-32"><ellipse class="cls-11_recycling-2-32" cx="250" cy="454.2" rx="217.03" ry="27.8"/></g><g id="person_bin_recycling-2-32"><path class="cls-10_recycling-2-32" d="m347.08,154.92s-35.36-9.93-20.21-28.04c15.15-18.12,35.86-3.22,29.64,25.03l-9.43,3.01Z"/><path class="cls-2_recycling-2-32" d="m202.19,173.31s12.03,97.16,62.76,90.91c50.72-6.26,86.24-93.98,86.24-93.98l-10.82-7.47s-31.62,60.6-67.19,59.29c-35.57-1.32-4.97-52.69-31.63-100.12-26.66-47.44-48.25,25.68-39.36,51.38Z"/><path class="cls-12_recycling-2-32" d="m314.08,189.35l24.03,15.64s12.64-20.53,14.91-34.66c0,0,11.8-6.48,8.67-17.13-3.13-10.65-22.16,8.14-22.16,8.14l-25.45,28.01Z"/><path class="cls-10_recycling-2-32" d="m362.02,158.91s84.41-5.17,77.5,72.14h-116.42s-3.34-48.67,38.92-72.14Z"/><path class="cls-13_recycling-2-32 targetColor" d="m228.16,103.73s33.5,26.44,30.86,106.14l-44.79,21.17,13.93-127.32Z" style="fill: rgb(2, 117, 75);"/><g class="cls-4_recycling-2-32"><path class="cls-1_recycling-2-32" d="m228.16,103.73s33.5,26.44,30.86,106.14l-44.79,21.17,13.93-127.32Z"/></g><polygon class="cls-2_recycling-2-32" points="180.73 36.61 168.19 80.82 193.05 85.98 192.19 51.74 180.73 36.61"/><g class="cls-7_recycling-2-32"><path class="cls-9_recycling-2-32" d="m192.7,59.23s-4.54-1.5-7.57-5.83c0,0-.64,8.39,7.55,17.72l.02-11.89Z"/></g><path class="cls-2_recycling-2-32" d="m206.47,37.9s-1.25,13.97-5.19,22.7c-1.6,3.54-5.83,5.14-9.35,3.49-4.37-2.05-9.69-6.08-9.93-13.65l-1.98-12.79s-.96-8.06,7.81-12.27,19.83,4.05,18.64,12.52Z"/><path class="cls-10_recycling-2-32" d="m202.94,37.86c-2.43-.3-6.86-1.1-12.55-3.24,0,0,3.25,6.78-2.24,12.63-5.49,5.85-11.99,1.73-11.99,1.73l3.38-17.69c.82-5.19,4.4-9.53,9.35-11.27,2.03-.71,4.25-1.38,6.44-1.84,5.47-1.14,12.34,3.59,17.53.96,2.28-1.15,4.97.57,4.89,3.12-.16,5.54-2.63,13.86-10.45,15.51-1.43.3-2.9.28-4.35.1Z"/><path class="cls-2_recycling-2-32" d="m189.7,47.11s.84-5.33-3.22-5.63c-4.07-.3-5.33,7.4-.03,9.08l3.25-3.45Z"/><path class="cls-2_recycling-2-32" d="m191.47,294.42l-27.49,149.29-8.07-2.75-8.21-104.32c-.97-16.81,5.55-26.34-5.98-38.62l11.99-13.24,37.78,9.63Z"/><path class="cls-13_recycling-2-32 targetColor" d="m200.88,85.99l-32.63-6.78s-49.55-7.98-76.23,24.28c-30.05,36.34,17.93,163.84,17.93,163.84l85.49,9.25s115.99-141.81,5.44-190.59Z" style="fill: rgb(2, 117, 75);"/><polygon class="cls-13_recycling-2-32 targetColor" points="167.69 423.53 154.31 420.75 155.9 440.97 163.98 443.71 167.69 423.53" style="fill: rgb(2, 117, 75);"/><g class="cls-3_recycling-2-32"><polygon class="cls-1_recycling-2-32" points="167.69 423.53 154.31 420.75 155.9 440.97 163.98 443.71 167.69 423.53"/></g><path class="cls-2_recycling-2-32" d="m107.8,289.12l-15.78,150.98,8.52-.35,37.34-97.76c5.68-15.86,2.12-26.83,16.64-35.36l-7.76-16.08-38.96-1.43Z"/><polygon class="cls-13_recycling-2-32 targetColor" points="94.15 419.69 107.77 420.8 100.54 439.74 92.02 440.1 94.15 419.69" style="fill: rgb(2, 117, 75);"/><g class="cls-3_recycling-2-32"><polygon class="cls-1_recycling-2-32" points="94.15 419.69 107.77 420.8 100.54 439.74 92.02 440.1 94.15 419.69"/></g><g class="cls-6_recycling-2-32"><circle class="cls-1_recycling-2-32" cx="396.28" cy="221.16" r="27.95"/></g><polygon class="cls-10_recycling-2-32" points="195.44 276.58 183.73 343.99 147.15 343.99 142.11 295.17 109.95 267.33 195.44 276.58"/><g class="cls-8_recycling-2-32"><path class="cls-11_recycling-2-32" d="m152.69,102.43s17.53,48.08-4.86,81.5c-22.4,33.42-12.52,63.66,0,66.16,12.52,2.5,33.04-7.05,33.04-7.05l14.57,21.46-17.09,10.24-48.63-5.02-25.81-18.71s-7.52-25.99-8.8-30.49c-1.29-4.49-1.77-98.32,57.59-118.1Z"/></g><polygon class="cls-10_recycling-2-32" points="109.95 267.33 97.55 343.99 137.07 343.99 156.44 281.61 109.95 267.33"/><path class="cls-13_recycling-2-32 targetColor" d="m164.63,439.48s3.48,6.55,9.8,6.19c6.32-.37,8.83,5.5,3.45,7.9-5.39,2.4-20.9-2.74-20.9-2.74l-1.13-11.51,8.79.16Z" style="fill: rgb(2, 117, 75);"/><path class="cls-13_recycling-2-32 targetColor" d="m92.74,436.41s-2.77,6.88-9.09,7.19c-6.32.3-8.2,6.4-2.59,8.22,5.61,1.82,20.5-4.93,20.5-4.93l-.09-11.56-8.72,1.09Z" style="fill: rgb(2, 117, 75);"/><path class="cls-2_recycling-2-32" d="m144.13,121.16c4.54-22.67-18.48-41.27-39.52-31.68-9.68,4.41-19,11.1-24.77,21.26-16.47,28.98-66.86,162.05-6.92,169.3,59.95,7.25,102.59-29.64,102.59-29.64l-7.33-13.6s-86.37,28.75-82.75,4.7c2.81-18.68,48.9-71.5,58.69-120.33Z"/><path class="cls-2_recycling-2-32" d="m204.18,43.69l3.24,8.62c.8,2.13-.88,4.37-3.15,4.18l-7.51-.6,7.42-12.2Z"/><path class="cls-13_recycling-2-32 targetColor" d="m53.49,171.67l61.92,26.68s73.47-94.61,18.44-113.91c-55.99-19.64-80.37,87.23-80.37,87.23Z" style="fill: rgb(2, 117, 75);"/><g class="cls-4_recycling-2-32"><path class="cls-1_recycling-2-32" d="m53.49,171.67l61.92,26.68s73.47-94.61,18.44-113.91c-55.99-19.64-80.37,87.23-80.37,87.23Z"/></g><polygon class="cls-12_recycling-2-32" points="431.95 453.91 331.96 453.91 319.37 244.55 443.8 244.55 431.95 453.91"/><path class="cls-1_recycling-2-32" d="m393.68,320.82c1.82.35,3.61-.69,4.23-2.43l3.19-9.11c.28-.81-.59-1.53-1.33-1.1l-2.39,1.38-6.3-10.9c-.78-1.34-2.21-2.17-3.76-2.17h-9.69c-1.55,0-2.99.83-3.76,2.17l-6.76,11.7c-.59,1.03-.24,2.35.79,2.94l7.3,4.22c1.03.59,2.35.24,2.94-.79l4.33-7.5,3.87,6.7-2.4,1.38c-.74.43-.55,1.54.29,1.71l9.45,1.81Z"/><path class="cls-1_recycling-2-32" d="m413.94,341.14c.77-1.35.75-3.01-.03-4.34l-6.84-11.65c-.6-1.03-1.92-1.37-2.95-.77l-7.27,4.27c-1.03.6-1.37,1.92-.77,2.95l4.39,7.46-7.74.06-.02-2.77c0-.85-1.07-1.24-1.63-.59l-6.24,7.32c-1.2,1.41-1.19,3.48.03,4.88l6.35,7.27c.56.64,1.62.24,1.62-.61l-.02-2.76,12.59-.09c1.55-.01,2.98-.85,3.75-2.2l4.78-8.43Z"/><path class="cls-1_recycling-2-32" d="m372.29,339.17l-8.66-.04,3.9-6.68,2.39,1.39c.74.43,1.61-.29,1.34-1.1l-3.12-9.1c-.6-1.75-2.39-2.8-4.21-2.46l-9.49,1.75c-.84.16-1.04,1.27-.3,1.7l2.38,1.39-6.34,10.88c-.78,1.34-.79,3-.02,4.34l4.81,8.42c.77,1.35,2.2,2.18,3.75,2.19l13.51.05c1.19,0,2.16-.95,2.16-2.14l.04-8.43c0-1.19-.96-2.16-2.15-2.16h0Z"/><rect class="cls-12_recycling-2-32" x="306.78" y="231.05" width="148.87" height="27.01"/><g class="cls-4_recycling-2-32"><rect class="cls-1_recycling-2-32" x="306.78" y="231.05" width="148.87" height="27.01"/></g><g class="cls-4_recycling-2-32"><rect class="cls-1_recycling-2-32" x="358.16" y="384.78" width="50.72" height="28.74"/></g><g class="cls-8_recycling-2-32"><polygon class="cls-11_recycling-2-32" points="371.21 408.28 386.82 408.28 399.23 453.91 331.96 453.91 371.21 408.28"/></g><polygon class="cls-12_recycling-2-32" points="368.91 400.31 320.67 400.31 318.88 400.31 270.63 400.31 256.05 453.91 318.88 453.91 320.67 453.91 383.5 453.91 368.91 400.31"/><rect class="cls-13_recycling-2-32 targetColor" x="169.6" y="218.71" width="22.55" height="42.25" transform="translate(-70.44 75.28) rotate(-19.76)" style="fill: rgb(2, 117, 75);"/><g class="cls-4_recycling-2-32"><rect class="cls-1_recycling-2-32" x="169.6" y="218.71" width="22.55" height="42.25" transform="translate(-70.44 75.28) rotate(-19.76)"/></g><g class="cls-8_recycling-2-32"><polygon class="cls-11_recycling-2-32" points="353.22 416.16 319.01 416.16 317.89 416.16 284.3 416.16 278.74 438.06 317.89 438.06 319.01 438.06 358.16 438.06 353.22 416.16"/></g><path class="cls-12_recycling-2-32" d="m138.31,240.34l9.68,26.99s22.48-8.71,32.83-18.59c0,0,13.32,1.98,17.27-8.4,3.95-10.38-22.57-6.92-22.57-6.92l-37.21,6.92Z"/></g></svg>